<svg width="212" height="63" viewBox="0 0 212 63" fill="none" xmlns="http://www.w3.org/2000/svg">
<path d="M2.208 49.24C1.856 49.24 1.584 49.16 1.392 49C1.2 48.872 1.104 48.728 1.104 48.568C1.104 48.312 1.216 48.12 1.44 47.992C1.664 47.832 1.888 47.72 2.112 47.656C3.264 47.368 4.112 47.016 4.656 46.6C5.2 46.152 5.472 45.432 5.472 44.44V22.36C5.472 21.624 5.376 21.064 5.184 20.68C5.024 20.296 4.72 20.008 4.272 19.816C3.856 19.592 3.232 19.4 2.4 19.24C1.568 19.08 1.152 18.744 1.152 18.232C1.152 18.04 1.264 17.896 1.488 17.8C1.712 17.672 1.968 17.608 2.256 17.608C3.056 17.608 3.808 17.624 4.512 17.656C5.248 17.688 5.952 17.72 6.624 17.752C7.296 17.784 7.968 17.8 8.64 17.8C9.376 17.8 10.112 17.784 10.848 17.752C11.616 17.72 12.384 17.688 13.152 17.656C13.952 17.624 14.72 17.608 15.456 17.608C15.776 17.608 16.032 17.672 16.224 17.8C16.416 17.896 16.512 18.056 16.512 18.28C16.512 18.536 16.4 18.744 16.176 18.904C15.984 19.032 15.696 19.144 15.312 19.24C14.064 19.56 13.136 19.912 12.528 20.296C11.952 20.648 11.664 21.288 11.664 22.216V44.152C11.664 45.08 11.872 45.768 12.288 46.216C12.704 46.632 13.488 46.84 14.64 46.84H19.872C20.608 46.84 21.28 46.712 21.888 46.456C22.496 46.2 22.992 45.88 23.376 45.496C23.952 44.984 24.432 44.44 24.816 43.864C25.2 43.288 25.568 42.616 25.92 41.848C26.144 41.368 26.352 41 26.544 40.744C26.736 40.488 26.928 40.36 27.12 40.36C27.344 40.36 27.504 40.472 27.6 40.696C27.696 40.888 27.744 41.096 27.744 41.32C27.744 41.352 27.728 41.448 27.696 41.608C27.664 41.768 27.648 41.896 27.648 41.992C27.392 42.92 27.168 43.72 26.976 44.392C26.816 45.064 26.672 45.72 26.544 46.36C26.448 46.968 26.352 47.64 26.256 48.376C26.224 48.6 26.16 48.808 26.064 49C25.968 49.16 25.776 49.24 25.488 49.24C24.528 49.24 23.376 49.224 22.032 49.192C20.688 49.16 19.264 49.128 17.76 49.096C16.256 49.096 14.736 49.08 13.2 49.048C11.696 49.016 10.272 49 8.928 49C8.224 49 7.408 49.016 6.48 49.048C5.584 49.08 4.736 49.112 3.936 49.144C3.136 49.208 2.56 49.24 2.208 49.24ZM29.9981 49.144C29.7421 49.144 29.5341 49.096 29.3741 49C29.2141 48.872 29.1341 48.712 29.1341 48.52C29.1341 48.264 29.2301 48.072 29.4221 47.944C29.6141 47.816 29.8381 47.72 30.0941 47.656C30.8621 47.464 31.4061 47.256 31.7261 47.032C32.0781 46.808 32.2541 46.424 32.2541 45.88V35.464C32.2541 34.44 32.0941 33.672 31.7741 33.16C31.4541 32.648 30.9101 32.328 30.1421 32.2C29.9821 32.168 29.8541 32.088 29.7581 31.96C29.6621 31.8 29.6141 31.624 29.6141 31.432C29.6141 30.984 29.7901 30.744 30.1421 30.712C31.6781 30.392 33.0061 29.96 34.1261 29.416C35.2781 28.84 36.1581 28.392 36.7661 28.072C37.2141 27.848 37.5021 27.736 37.6301 27.736C37.9821 27.736 38.1581 27.896 38.1581 28.216C38.1261 28.664 38.0621 29.288 37.9661 30.088C37.8701 30.856 37.7741 31.688 37.6781 32.584C37.6141 33.448 37.5821 34.264 37.5821 35.032V45.832C37.5821 46.312 37.7581 46.68 38.1101 46.936C38.4621 47.192 39.0221 47.432 39.7901 47.656C40.0461 47.752 40.2701 47.864 40.4621 47.992C40.6541 48.088 40.7501 48.264 40.7501 48.52C40.7501 48.904 40.4781 49.096 39.9341 49.096C39.3261 49.096 38.7341 49.08 38.1581 49.048C37.6141 49.016 37.0701 48.984 36.5261 48.952C36.0141 48.92 35.4701 48.904 34.8941 48.904C34.3501 48.904 33.8221 48.92 33.3101 48.952C32.7981 48.984 32.2701 49.016 31.7261 49.048C31.2141 49.112 30.6381 49.144 29.9981 49.144ZM34.7981 24.952C33.8701 24.952 33.0861 24.632 32.4461 23.992C31.8061 23.352 31.4861 22.584 31.4861 21.688C31.4861 20.696 31.8061 19.88 32.4461 19.24C33.0861 18.6 33.8701 18.28 34.7981 18.28C35.7581 18.28 36.5581 18.6 37.1981 19.24C37.8381 19.88 38.1581 20.696 38.1581 21.688C38.1581 22.584 37.8381 23.352 37.1981 23.992C36.5581 24.632 35.7581 24.952 34.7981 24.952ZM43.5004 49.144C43.2444 49.144 43.0204 49.096 42.8284 49C42.6364 48.872 42.5404 48.712 42.5404 48.52C42.5404 48.264 42.6364 48.072 42.8284 47.944C43.0524 47.816 43.3244 47.704 43.6444 47.608C44.1244 47.48 44.5564 47.304 44.9404 47.08C45.3564 46.856 45.5644 46.424 45.5644 45.784V35.032C45.5644 34.296 45.4524 33.672 45.2284 33.16C45.0364 32.616 44.6044 32.264 43.9324 32.104C43.8044 32.04 43.6924 31.96 43.5964 31.864C43.5004 31.736 43.4524 31.544 43.4524 31.288C43.4524 30.872 43.5964 30.632 43.8844 30.568C45.0044 30.312 46.1084 29.976 47.1964 29.56C48.3164 29.112 49.2924 28.648 50.1244 28.168C50.2524 28.104 50.3804 28.024 50.5084 27.928C50.6364 27.832 50.7644 27.784 50.8924 27.784C51.0524 27.784 51.1484 27.848 51.1804 27.976C51.2444 28.072 51.2764 28.184 51.2764 28.312C51.2764 28.536 51.2284 28.952 51.1324 29.56C51.0684 30.168 51.0364 30.696 51.0364 31.144C51.0364 31.272 51.0364 31.416 51.0364 31.576C51.0684 31.704 51.1004 31.784 51.1324 31.816C52.2204 30.792 53.3404 29.992 54.4924 29.416C55.6764 28.84 57.0044 28.552 58.4764 28.552C60.1084 28.552 61.4684 29.176 62.5564 30.424C63.6764 31.672 64.2364 33.32 64.2364 35.368V45.832C64.2364 46.472 64.4284 46.888 64.8124 47.08C65.1964 47.272 65.6284 47.448 66.1084 47.608C66.3644 47.704 66.6044 47.832 66.8284 47.992C67.0524 48.12 67.1644 48.312 67.1644 48.568C67.1644 48.76 67.0524 48.904 66.8284 49C66.6364 49.096 66.4444 49.144 66.2524 49.144C65.6124 49.144 65.0524 49.112 64.5724 49.048C64.0924 49.016 63.6124 48.984 63.1324 48.952C62.6844 48.92 62.1724 48.904 61.5964 48.904C61.0524 48.904 60.5404 48.92 60.0604 48.952C59.5804 48.984 59.0844 49.016 58.5724 49.048C58.0924 49.112 57.5324 49.144 56.8924 49.144C56.7324 49.144 56.5564 49.096 56.3644 49C56.1724 48.904 56.0764 48.76 56.0764 48.568C56.0764 48.312 56.1724 48.12 56.3644 47.992C56.5564 47.832 56.7804 47.704 57.0364 47.608C57.5164 47.448 57.9324 47.272 58.2844 47.08C58.6684 46.888 58.8604 46.472 58.8604 45.832V36.088C58.8604 34.808 58.5404 33.8 57.9004 33.064C57.2924 32.328 56.4604 31.96 55.4044 31.96C54.5404 31.96 53.7884 32.088 53.1484 32.344C52.5084 32.6 51.8844 32.968 51.2764 33.448C51.1484 33.544 51.0524 33.688 50.9884 33.88C50.9244 34.04 50.8924 34.216 50.8924 34.408V45.832C50.8924 46.472 51.0684 46.904 51.4204 47.128C51.8044 47.32 52.2364 47.48 52.7164 47.608C53.3884 47.832 53.7244 48.136 53.7244 48.52C53.7244 48.712 53.6444 48.872 53.4844 49C53.3244 49.096 53.1164 49.144 52.8604 49.144C52.2204 49.144 51.6604 49.112 51.1804 49.048C50.7004 49.016 50.2364 48.984 49.7884 48.952C49.3404 48.92 48.8284 48.904 48.2524 48.904C47.7084 48.904 47.1964 48.92 46.7164 48.952C46.2364 48.984 45.7404 49.016 45.2284 49.048C44.7164 49.112 44.1404 49.144 43.5004 49.144ZM69.8396 49.144C69.1676 49.144 68.8316 48.936 68.8316 48.52C68.8316 48.264 68.9276 48.088 69.1196 47.992C69.3436 47.864 69.6156 47.736 69.9356 47.608C70.4156 47.448 70.8476 47.272 71.2316 47.08C71.6476 46.856 71.8556 46.408 71.8556 45.736V22.36C71.8556 21.368 71.7116 20.584 71.4236 20.008C71.1676 19.432 70.6396 19.064 69.8396 18.904C69.5196 18.84 69.3596 18.6 69.3596 18.184C69.3596 17.8 69.5036 17.576 69.7916 17.512C70.6236 17.352 71.4556 17.128 72.2876 16.84C73.1196 16.552 73.9036 16.264 74.6396 15.976C75.3756 15.688 75.9836 15.464 76.4636 15.304C76.7196 15.208 76.9116 15.16 77.0396 15.16C77.1996 15.16 77.3116 15.208 77.3756 15.304C77.4396 15.4 77.4716 15.528 77.4716 15.688C77.4716 15.976 77.4236 16.488 77.3276 17.224C77.2316 17.928 77.1676 18.856 77.1356 20.008L77.1836 37.24C77.1836 37.592 77.2956 37.768 77.5196 37.768C77.6476 37.768 77.8076 37.72 77.9996 37.624C78.2236 37.528 78.4316 37.384 78.6236 37.192C79.8396 36.136 80.8956 35.112 81.7916 34.12C82.7196 33.128 83.3436 32.408 83.6636 31.96C83.8236 31.768 83.9356 31.608 83.9996 31.48C84.0636 31.352 84.0956 31.24 84.0956 31.144C84.0956 30.984 83.9676 30.84 83.7116 30.712C83.4556 30.552 83.1036 30.44 82.6556 30.376C82.2716 30.28 82.0796 30.088 82.0796 29.8C82.0796 29.576 82.1916 29.416 82.4156 29.32C82.6396 29.224 82.8796 29.176 83.1356 29.176H85.4876C86.0316 29.176 86.7036 29.144 87.5036 29.08C88.3356 29.016 89.1196 28.952 89.8556 28.888C90.6236 28.792 91.1996 28.728 91.5836 28.696C91.9676 28.696 92.1596 28.872 92.1596 29.224C92.1596 29.448 92.0476 29.64 91.8236 29.8C91.6316 29.96 91.3596 30.088 91.0076 30.184C90.4316 30.312 89.8076 30.536 89.1356 30.856C88.4956 31.144 87.8396 31.48 87.1676 31.864C86.7516 32.088 86.2236 32.44 85.5836 32.92C84.9436 33.4 84.2716 33.928 83.5676 34.504C82.8956 35.048 82.2716 35.592 81.6956 36.136C81.5356 36.296 81.4556 36.456 81.4556 36.616C81.4556 36.712 81.4716 36.792 81.5036 36.856C81.5676 36.92 81.6316 37 81.6956 37.096C82.4956 38.088 83.2796 39.08 84.0476 40.072C84.8476 41.064 85.6156 41.992 86.3516 42.856C87.0876 43.72 87.7436 44.488 88.3196 45.16C88.8636 45.704 89.5036 46.216 90.2396 46.696C91.0076 47.144 91.6316 47.448 92.1116 47.608C92.4316 47.736 92.7356 47.864 93.0236 47.992C93.3436 48.088 93.5036 48.264 93.5036 48.52C93.5036 48.936 93.1676 49.144 92.4956 49.144C90.7676 49.144 89.0236 49.112 87.2636 49.048C85.5356 49.016 83.8716 49 82.2716 49C81.6636 49 81.3596 48.808 81.3596 48.424C81.3596 48.2 81.4396 48.024 81.5996 47.896C81.7916 47.736 82.0316 47.608 82.3196 47.512C82.6076 47.416 82.8316 47.304 82.9916 47.176C83.1516 47.016 83.2476 46.84 83.2796 46.648C83.2796 46.52 83.2316 46.392 83.1356 46.264C83.0396 46.104 82.9116 45.912 82.7516 45.688L77.7596 39.256C77.6316 39.096 77.5196 39.016 77.4236 39.016C77.2636 39.048 77.1836 39.176 77.1836 39.4C77.1516 39.848 77.1356 40.328 77.1356 40.84C77.1356 41.352 77.1356 41.864 77.1356 42.376C77.1356 42.92 77.1356 43.48 77.1356 44.056C77.1356 44.632 77.1516 45.192 77.1836 45.736C77.1836 46.312 77.3116 46.728 77.5676 46.984C77.8236 47.24 78.1916 47.448 78.6716 47.608C78.9276 47.704 79.1676 47.816 79.3916 47.944C79.6156 48.04 79.7276 48.216 79.7276 48.472C79.7276 48.696 79.6156 48.872 79.3916 49C79.1676 49.096 78.9596 49.144 78.7676 49.144C78.1596 49.144 77.6316 49.112 77.1836 49.048C76.7356 49.016 76.3036 48.984 75.8876 48.952C75.4716 48.92 74.9756 48.904 74.3996 48.904C73.8556 48.904 73.3596 48.92 72.9116 48.952C72.4636 48.984 71.9996 49.016 71.5196 49.048C71.0396 49.112 70.4796 49.144 69.8396 49.144ZM123.863 50.008C122.487 50.008 121.287 49.848 120.263 49.528C119.239 49.24 118.359 48.808 117.623 48.232C116.887 47.656 116.215 46.984 115.607 46.216C114.903 45.256 114.215 44.328 113.543 43.432C112.871 42.504 112.183 41.496 111.479 40.408C110.807 39.288 110.055 37.96 109.223 36.424C108.807 35.688 108.279 35.144 107.639 34.792C107.223 34.568 106.791 34.408 106.343 34.312C105.927 34.216 105.575 34.168 105.287 34.168C105.095 34.136 104.951 34.216 104.855 34.408C104.759 34.6 104.711 34.84 104.711 35.128V44.056C104.711 45.048 104.967 45.816 105.479 46.36C106.023 46.904 106.935 47.32 108.215 47.608C108.631 47.672 108.935 47.784 109.127 47.944C109.319 48.072 109.415 48.264 109.415 48.52C109.415 48.744 109.319 48.904 109.127 49C108.967 49.096 108.711 49.144 108.359 49.144C107.623 49.144 106.871 49.112 106.103 49.048C105.335 49.016 104.583 48.984 103.847 48.952C103.143 48.92 102.471 48.904 101.831 48.904C101.127 48.904 100.391 48.92 99.6229 48.952C98.8869 48.984 98.1349 49.032 97.3669 49.096C96.5989 49.16 95.8309 49.192 95.0629 49.192C94.7749 49.192 94.5189 49.128 94.2949 49C94.0709 48.904 93.9589 48.76 93.9589 48.568C93.9589 48.088 94.3589 47.768 95.1589 47.608C96.3749 47.352 97.2389 47 97.7509 46.552C98.2629 46.104 98.5189 45.352 98.5189 44.296V23.08C98.5189 22.152 98.4389 21.448 98.2789 20.968C98.1509 20.456 97.8789 20.072 97.4629 19.816C97.0469 19.56 96.4229 19.368 95.5909 19.24C95.1429 19.176 94.8229 19.048 94.6309 18.856C94.4389 18.664 94.3429 18.472 94.3429 18.28C94.3429 18.056 94.4389 17.896 94.6309 17.8C94.8549 17.672 95.1429 17.608 95.4949 17.608C96.4549 17.608 97.2229 17.624 97.7989 17.656C98.3749 17.688 98.9189 17.736 99.4309 17.8C99.9749 17.832 100.615 17.848 101.351 17.848C102.055 17.848 102.679 17.816 103.223 17.752C103.767 17.688 104.375 17.624 105.047 17.56C105.719 17.496 106.583 17.464 107.639 17.464C111.319 17.464 114.135 18.104 116.087 19.384C118.039 20.664 119.015 22.616 119.015 25.24C119.015 26.68 118.711 27.912 118.103 28.936C117.495 29.928 116.727 30.744 115.799 31.384C114.903 32.024 113.975 32.52 113.015 32.872C112.887 32.904 112.823 32.984 112.823 33.112C112.855 33.24 112.919 33.352 113.015 33.448C113.975 34.92 114.903 36.328 115.799 37.672C116.727 38.984 117.687 40.232 118.679 41.416C119.703 42.6 120.807 43.736 121.991 44.824C122.983 45.752 123.991 46.312 125.015 46.504C126.071 46.664 127.159 46.744 128.279 46.744C128.759 46.744 128.999 46.984 128.999 47.464C128.999 48.104 128.759 48.616 128.279 49C127.799 49.352 127.159 49.608 126.359 49.768C125.591 49.928 124.759 50.008 123.863 50.008ZM106.775 32.776C108.087 32.776 109.175 32.488 110.039 31.912C110.935 31.304 111.607 30.504 112.055 29.512C112.535 28.52 112.775 27.416 112.775 26.2C112.775 24.76 112.599 23.544 112.247 22.552C111.895 21.528 111.287 20.744 110.423 20.2C109.591 19.624 108.439 19.336 106.967 19.336C106.135 19.336 105.559 19.64 105.239 20.248C104.951 20.824 104.791 22.008 104.759 23.8C104.727 24.536 104.711 25.512 104.711 26.728C104.711 27.912 104.711 29.336 104.711 31C104.711 31.704 104.887 32.184 105.239 32.44C105.623 32.664 106.135 32.776 106.775 32.776ZM138.942 49.672C137.182 49.672 135.63 49.224 134.286 48.328C132.942 47.432 131.886 46.2 131.118 44.632C130.35 43.032 129.966 41.224 129.966 39.208C129.966 37.256 130.414 35.48 131.31 33.88C132.238 32.248 133.47 30.952 135.006 29.992C136.542 29.032 138.222 28.552 140.046 28.552C141.39 28.552 142.59 28.84 143.646 29.416C144.702 29.96 145.534 30.728 146.142 31.72C146.782 32.68 147.102 33.768 147.102 34.984C147.102 36.136 146.606 36.712 145.614 36.712H135.87C135.422 36.712 135.086 36.84 134.862 37.096C134.67 37.32 134.574 37.752 134.574 38.392C134.574 39.736 134.862 40.952 135.438 42.04C136.046 43.128 136.846 43.992 137.838 44.632C138.83 45.272 139.966 45.592 141.246 45.592C142.174 45.592 143.022 45.416 143.79 45.064C144.59 44.68 145.342 44.168 146.046 43.528C146.174 43.432 146.286 43.352 146.382 43.288C146.478 43.192 146.574 43.144 146.67 43.144C146.99 43.144 147.15 43.336 147.15 43.72C147.15 44.168 146.958 44.712 146.574 45.352C146.19 46.088 145.63 46.792 144.894 47.464C144.19 48.136 143.326 48.664 142.302 49.048C141.278 49.464 140.158 49.672 138.942 49.672ZM135.87 34.84H139.278C140.11 34.84 140.734 34.824 141.15 34.792C141.566 34.76 141.966 34.696 142.35 34.6C142.51 34.568 142.622 34.44 142.686 34.216C142.75 33.96 142.782 33.672 142.782 33.352C142.782 32.488 142.446 31.768 141.774 31.192C141.134 30.584 140.334 30.28 139.374 30.28C138.702 30.28 138.046 30.488 137.406 30.904C136.766 31.288 136.238 31.784 135.822 32.392C135.406 33 135.214 33.624 135.246 34.264C135.246 34.648 135.454 34.84 135.87 34.84ZM154.359 49.672C153.591 49.672 152.855 49.464 152.151 49.048C151.479 48.632 150.935 48.088 150.519 47.416C150.103 46.744 149.895 46.056 149.895 45.352C149.895 44.264 150.215 43.384 150.855 42.712C151.495 42.008 152.455 41.384 153.735 40.84L158.199 38.92C158.839 38.664 159.223 38.424 159.351 38.2C159.511 37.976 159.591 37.56 159.591 36.952L159.687 34.12C159.719 33.224 159.527 32.504 159.111 31.96C158.727 31.416 158.135 31.144 157.335 31.144C156.919 31.144 156.487 31.224 156.039 31.384C155.591 31.544 155.239 31.752 154.983 32.008C154.855 32.136 154.759 32.312 154.695 32.536C154.663 32.728 154.647 32.92 154.647 33.112C154.647 33.272 154.647 33.48 154.647 33.736C154.679 33.96 154.695 34.168 154.695 34.36C154.695 34.552 154.455 34.792 153.975 35.08C153.495 35.368 152.951 35.624 152.343 35.848C151.735 36.072 151.223 36.184 150.807 36.184C150.583 36.184 150.407 36.104 150.279 35.944C150.151 35.784 150.087 35.592 150.087 35.368C150.087 34.856 150.247 34.344 150.567 33.832C150.919 33.288 151.463 32.712 152.199 32.104C152.999 31.432 153.879 30.84 154.839 30.328C155.799 29.784 156.727 29.352 157.623 29.032C158.551 28.712 159.351 28.552 160.023 28.552C161.559 28.552 162.791 29.064 163.719 30.088C164.647 31.08 165.095 32.392 165.063 34.024L164.823 44.296C164.791 45 164.919 45.592 165.207 46.072C165.527 46.552 165.911 46.792 166.359 46.792C167.031 46.792 167.575 46.6 167.991 46.216C168.119 46.088 168.231 46.024 168.327 46.024C168.487 46.024 168.615 46.088 168.711 46.216C168.839 46.312 168.903 46.44 168.903 46.6C168.903 46.952 168.647 47.384 168.135 47.896C167.559 48.472 166.935 48.904 166.263 49.192C165.623 49.512 164.983 49.672 164.343 49.672C162.647 49.672 161.271 48.792 160.215 47.032H160.071C159.015 47.96 158.039 48.632 157.143 49.048C156.279 49.464 155.351 49.672 154.359 49.672ZM156.999 46.792C157.447 46.792 157.831 46.728 158.151 46.6C158.471 46.44 158.743 46.232 158.967 45.976C159.095 45.816 159.191 45.624 159.255 45.4C159.351 45.176 159.415 44.856 159.447 44.44L159.543 41.368C159.575 41.048 159.543 40.84 159.447 40.744C159.351 40.616 159.239 40.552 159.111 40.552C159.047 40.552 158.951 40.568 158.823 40.6C158.695 40.6 158.551 40.648 158.391 40.744C157.207 41.224 156.359 41.736 155.847 42.28C155.335 42.824 155.079 43.528 155.079 44.392C155.079 45.256 155.287 45.88 155.703 46.264C156.119 46.616 156.551 46.792 156.999 46.792ZM185.934 49.912C185.838 49.912 185.694 49.816 185.502 49.624C185.342 49.464 185.262 49.336 185.262 49.24C185.326 48.792 185.374 48.328 185.406 47.848C185.47 47.336 185.518 46.904 185.55 46.552V46.264C184.942 47.16 184.078 47.96 182.958 48.664C181.87 49.336 180.622 49.672 179.214 49.672C177.422 49.672 175.838 49.224 174.462 48.328C173.086 47.4 171.998 46.184 171.198 44.68C170.43 43.144 170.046 41.496 170.046 39.736C170.046 37.656 170.51 35.784 171.438 34.12C172.398 32.424 173.726 31.096 175.422 30.136C177.118 29.144 179.086 28.648 181.326 28.648C181.87 28.648 182.414 28.696 182.958 28.792C183.534 28.856 184.03 28.952 184.446 29.08C184.83 29.176 185.038 29.224 185.07 29.224C185.23 29.224 185.31 28.952 185.31 28.408V22.36C185.31 21.144 185.15 20.296 184.83 19.816C184.51 19.336 183.998 19.032 183.294 18.904C182.942 18.808 182.766 18.568 182.766 18.184C182.766 17.832 182.926 17.608 183.246 17.512C184.494 17.224 185.662 16.904 186.75 16.552C187.87 16.168 188.782 15.816 189.486 15.496C189.806 15.368 190.03 15.288 190.158 15.256C190.318 15.192 190.414 15.16 190.446 15.16C190.766 15.16 190.926 15.32 190.926 15.64C190.926 15.64 190.91 15.832 190.878 16.216C190.846 16.6 190.798 17.128 190.734 17.8C190.702 18.44 190.67 19.176 190.638 20.008L190.494 43.384C190.494 44.472 190.574 45.256 190.734 45.736C190.894 46.216 191.166 46.456 191.55 46.456C191.71 46.456 191.918 46.456 192.174 46.456C192.43 46.424 192.878 46.376 193.518 46.312C193.998 46.28 194.238 46.44 194.238 46.792C194.238 47.048 194.142 47.304 193.95 47.56C193.79 47.784 193.63 47.896 193.47 47.896C192.382 48.024 191.278 48.232 190.158 48.52C189.038 48.808 187.902 49.176 186.75 49.624C186.526 49.72 186.35 49.784 186.222 49.816C186.126 49.88 186.03 49.912 185.934 49.912ZM181.422 46.648C182.03 46.648 182.702 46.504 183.438 46.216C184.174 45.896 184.798 45.464 185.31 44.92V34.936C185.31 34.264 185.086 33.608 184.638 32.968C184.19 32.296 183.598 31.752 182.862 31.336C182.126 30.888 181.342 30.664 180.51 30.664C179.742 30.664 178.99 30.952 178.254 31.528C177.518 32.072 176.894 32.92 176.382 34.072C175.902 35.224 175.662 36.696 175.662 38.488C175.662 39.96 175.838 41.224 176.19 42.28C176.574 43.304 177.054 44.136 177.63 44.776C178.206 45.416 178.83 45.896 179.502 46.216C180.174 46.504 180.814 46.648 181.422 46.648ZM202.115 49.672C201.091 49.672 200.099 49.528 199.139 49.24C198.211 48.984 197.363 48.584 196.595 48.04C196.371 47.592 196.195 46.888 196.067 45.928C195.971 44.968 195.923 44.024 195.923 43.096C195.923 42.712 196.195 42.52 196.739 42.52C196.963 42.52 197.155 42.584 197.315 42.712C197.475 42.84 197.587 42.984 197.651 43.144C198.195 44.552 198.883 45.688 199.715 46.552C200.547 47.384 201.491 47.8 202.547 47.8C203.443 47.8 204.147 47.528 204.659 46.984C205.171 46.408 205.427 45.752 205.427 45.016C205.427 44.152 205.107 43.432 204.467 42.856C203.859 42.28 203.011 41.688 201.923 41.08C200.931 40.536 200.035 39.96 199.235 39.352C198.467 38.744 197.859 38.056 197.411 37.288C196.963 36.488 196.739 35.56 196.739 34.504C196.739 33.32 197.043 32.28 197.651 31.384C198.259 30.488 199.107 29.784 200.195 29.272C201.315 28.76 202.595 28.504 204.035 28.504C205.059 28.504 205.971 28.616 206.771 28.84C207.603 29.064 208.179 29.288 208.499 29.512C208.755 29.832 208.963 30.424 209.123 31.288C209.283 32.12 209.363 33 209.363 33.928C209.363 34.216 209.123 34.36 208.643 34.36C208.419 34.36 208.195 34.296 207.971 34.168C207.747 34.04 207.603 33.912 207.539 33.784C207.123 32.6 206.595 31.704 205.955 31.096C205.315 30.488 204.579 30.184 203.747 30.184C203.011 30.184 202.339 30.424 201.731 30.904C201.155 31.352 200.867 31.992 200.867 32.824C200.867 33.496 201.139 34.104 201.683 34.648C202.259 35.192 203.075 35.752 204.131 36.328C206.147 37.416 207.603 38.456 208.499 39.448C209.395 40.408 209.843 41.704 209.843 43.336C209.843 45.288 209.171 46.84 207.827 47.992C206.483 49.112 204.579 49.672 202.115 49.672Z" fill="black"/>
</svg>
